<?xml version="1.0" encoding="UTF-8" standalone="no"?>
<!-- Created with Inkscape (http://www.inkscape.org/) -->

<svg
   xmlns:dc="http://purl.org/dc/elements/1.1/"
   xmlns:cc="http://creativecommons.org/ns#"
   xmlns:rdf="http://www.w3.org/1999/02/22-rdf-syntax-ns#"
   xmlns:svg="http://www.w3.org/2000/svg"
   xmlns="http://www.w3.org/2000/svg"
   xmlns:xlink="http://www.w3.org/1999/xlink"
   xmlns:sodipodi="http://sodipodi.sourceforge.net/DTD/sodipodi-0.dtd"
   xmlns:inkscape="http://www.inkscape.org/namespaces/inkscape"
   id="svg3153"
   version="1.1"
   inkscape:version="0.48.0 r9654"
   width="1280"
   height="500"
   xml:space="preserve"
   sodipodi:docname="icon.svg"><metadata
     id="metadata3159"><rdf:RDF><cc:Work
         rdf:about=""><dc:format>image/svg+xml</dc:format><dc:type
           rdf:resource="http://purl.org/dc/dcmitype/StillImage" /><dc:title></dc:title></cc:Work></rdf:RDF></metadata><defs
     id="defs3157"><clipPath
       clipPathUnits="userSpaceOnUse"
       id="clipPath3167"><path
         d="M 0,400 1024,400 1024,0 0,0 0,400 z"
         id="path3169" /></clipPath><clipPath
       clipPathUnits="userSpaceOnUse"
       id="clipPath3223"><path
         d="m 243.449,248.938 0,-64.984 c 0,-6.123 -1.952,-10.529 -5.848,-13.22 l 0,0 c -4.356,-3.061 -11.871,-4.593 -22.543,-4.593 l 0,0 0,-12.246 c 27.829,0 41.746,9.973 41.746,29.919 l 0,0 -10e-4,65.124 -13.354,0 z"
         id="path3225" /></clipPath><linearGradient
       x1="0"
       y1="0"
       x2="1"
       y2="0"
       gradientUnits="userSpaceOnUse"
       gradientTransform="matrix(0,-46.381683,-46.381683,0,235.93115,216.43311)"
       spreadMethod="pad"
       id="linearGradient3231"><stop
         style="stop-opacity:1;stop-color:#e8a222"
         offset="0"
         id="stop3233" /><stop
         style="stop-opacity:1;stop-color:#ee7722"
         offset="0.612366"
         id="stop3235" /><stop
         style="stop-opacity:1;stop-color:#ee7722"
         offset="1"
         id="stop3237" /></linearGradient><clipPath
       clipPathUnits="userSpaceOnUse"
       id="clipPath3245"><path
         d="m 278.018,237.947 c -6.496,-6.494 -9.742,-14.938 -9.742,-25.327 l 0,0 c 0,-10.113 3.201,-18.417 9.603,-24.91 l 0,0 c 6.863,-6.961 16.141,-10.438 27.832,-10.438 l 0,0 c 10.298,0 18.693,2.597 25.186,7.795 l 0,0 0,-6.402 13.359,0 0,69.439 -13.359,0 0,-7.237 c -6.587,5.009 -14.798,7.517 -24.631,7.517 l 0,0 c -11.876,0 -21.29,-3.48 -28.248,-10.437 m 9.6,-42.027 c -3.99,4.176 -5.983,9.739 -5.983,16.7 l 0,0 c 0,6.957 1.993,12.615 5.983,16.975 l 0,0 c 4.36,4.64 10.343,6.962 17.954,6.962 l 0,0 c 8.254,0 14.54,-2.137 18.855,-6.403 l 0,0 c 4.311,-4.269 6.47,-10.112 6.47,-17.534 l 0,0 c 0,-6.771 -2.3,-12.384 -6.89,-16.839 l 0,0 c -4.593,-4.455 -10.739,-6.678 -18.435,-6.678 l 0,0 c -7.702,0 -13.689,2.272 -17.954,6.817"
         id="path3247" /></clipPath><linearGradient
       x1="0"
       y1="0"
       x2="1"
       y2="0"
       gradientUnits="userSpaceOnUse"
       gradientTransform="matrix(0,-46.38623,-46.38623,0,306.26611,216.43311)"
       spreadMethod="pad"
       id="linearGradient3253"><stop
         style="stop-opacity:1;stop-color:#e8a222"
         offset="0"
         id="stop3255" /><stop
         style="stop-opacity:1;stop-color:#ee7722"
         offset="0.612366"
         id="stop3257" /><stop
         style="stop-opacity:1;stop-color:#ee7722"
         offset="1"
         id="stop3259" /></linearGradient><clipPath
       clipPathUnits="userSpaceOnUse"
       id="clipPath3267"><path
         d="m 415.841,239.618 c -5.194,5.844 -12.524,8.766 -21.984,8.766 l 0,0 c -7.795,0 -14.427,-1.858 -19.901,-5.569 l 0,0 0,4.176 -13.358,0 0,-68.186 13.358,0 0,37.85 c 0,5.658 1.528,10.298 4.594,13.914 l 0,0 c 3.337,3.991 7.977,5.988 13.914,5.988 l 0,0 c 5.379,0 9.298,-1.114 11.759,-3.341 l 0,0 c 2.457,-2.226 3.688,-5.848 3.688,-10.857 l 0,0 0,-43.554 13.359,0 0,41.886 c 0,4.824 1.646,8.674 4.938,11.55 l 0,0 c 3.292,2.877 7.908,4.316 13.846,4.316 l 0,0 c 5.288,0 9.116,-1.114 11.482,-3.341 l 0,0 c 2.364,-2.226 3.549,-5.848 3.549,-10.857 l 0,0 0,-43.554 13.36,0 0,44.807 c 0,8.07 -2.484,14.217 -7.449,18.437 l 0,0 c -4.963,4.22 -12.037,6.335 -21.217,6.335 l 0,0 c -10.578,0 -18.557,-2.922 -23.938,-8.766"
         id="path3269" /></clipPath><linearGradient
       x1="0"
       y1="0"
       x2="1"
       y2="0"
       gradientUnits="userSpaceOnUse"
       gradientTransform="matrix(0,-46.388718,-46.388718,0,414.521,216.43262)"
       spreadMethod="pad"
       id="linearGradient3275"><stop
         style="stop-opacity:1;stop-color:#e8a222"
         offset="0"
         id="stop3277" /><stop
         style="stop-opacity:1;stop-color:#ee7722"
         offset="0.612366"
         id="stop3279" /><stop
         style="stop-opacity:1;stop-color:#ee7722"
         offset="1"
         id="stop3281" /></linearGradient><clipPath
       clipPathUnits="userSpaceOnUse"
       id="clipPath3289"><path
         d="M 489.793,238.225 C 482.836,231.453 479.36,222.918 479.36,212.62 l 0,0 c 0,-10.762 3.152,-19.251 9.46,-25.465 l 0,0 c 6.586,-6.591 16.049,-9.883 28.389,-9.883 l 0,0 c 8.346,0 15.627,1.579 21.846,4.734 l 0,0 c 5.782,2.93 10.504,8.354 14.161,16.273 l 0,0 -14.763,-0.026 c -4.609,-6.099 -11.599,-9.15 -20.968,-9.15 l 0,0 c -14.751,0 -22.913,6.122 -24.491,18.369 l 0,0 63.315,0.138 0,7.516 c 0,10.109 -3.525,18.18 -10.577,24.213 l 0,0 c -7.052,6.028 -16.326,9.045 -27.828,9.045 l 0,0 c -11.784,0 -21.154,-3.387 -28.111,-10.159 m 10.162,-7.656 c 4.356,3.991 10.34,5.988 17.949,5.988 l 0,0 c 7.606,0 13.543,-1.997 17.813,-5.988 l 0,0 c 3.246,-3.06 5.285,-6.816 6.123,-11.271 l 0,0 -48.427,0 c 1.019,4.455 3.197,8.211 6.542,11.271"
         id="path3291" /></clipPath><linearGradient
       x1="0"
       y1="0"
       x2="1"
       y2="0"
       gradientUnits="userSpaceOnUse"
       gradientTransform="matrix(0,-46.38623,-46.38623,0,517.83398,216.43311)"
       spreadMethod="pad"
       id="linearGradient3297"><stop
         style="stop-opacity:1;stop-color:#e8a222"
         offset="0"
         id="stop3299" /><stop
         style="stop-opacity:1;stop-color:#ee7722"
         offset="0.612366"
         id="stop3301" /><stop
         style="stop-opacity:1;stop-color:#ee7722"
         offset="1"
         id="stop3303" /></linearGradient><clipPath
       clipPathUnits="userSpaceOnUse"
       id="clipPath3311"><path
         d="m 580.029,242.4 0,4.591 -13.359,0 0,-68.186 13.359,0 0,37.85 c 0,5.934 1.926,10.736 5.776,14.402 l 0,0 c 3.852,3.665 9.252,5.5 16.212,5.5 l 0,0 c 12.246,0 18.37,-4.734 18.37,-14.198 l 0,0 0,-43.554 13.359,0 0,44.807 c 0,8.162 -3.295,14.473 -9.883,18.928 l 0,0 c -5.752,3.894 -13.08,5.844 -21.984,5.844 l 0,0 c -8.72,0 -16.006,-1.998 -21.85,-5.984"
         id="path3313" /></clipPath><linearGradient
       x1="0"
       y1="0"
       x2="1"
       y2="0"
       gradientUnits="userSpaceOnUse"
       gradientTransform="matrix(0,-46.388718,-46.388718,0,600.20801,216.43262)"
       spreadMethod="pad"
       id="linearGradient3319"><stop
         style="stop-opacity:1;stop-color:#e8a222"
         offset="0"
         id="stop3321" /><stop
         style="stop-opacity:1;stop-color:#ee7722"
         offset="0.612366"
         id="stop3323" /><stop
         style="stop-opacity:1;stop-color:#ee7722"
         offset="1"
         id="stop3325" /></linearGradient><clipPath
       clipPathUnits="userSpaceOnUse"
       id="clipPath3333"><path
         d="m 707.834,273.154 0,-30.06 c -6.586,5.194 -14.797,7.795 -24.631,7.795 l 0,0 c -11.965,0 -21.383,-3.619 -28.246,-10.855 l 0,0 c -6.496,-6.682 -9.744,-15.402 -9.744,-26.16 l 0,0 c 0,-10.488 3.201,-19.067 9.604,-25.745 l 0,0 c 6.863,-7.241 16.142,-10.857 27.831,-10.857 l 0,0 c 10.299,0 18.694,2.692 25.186,8.075 l 0,0 0,-6.682 13.359,0 0,94.489 -13.359,0 z m -43.278,-76.676 c -3.989,4.357 -5.984,10.156 -5.984,17.396 l 0,0 c 0,7.233 2.112,13.192 6.333,17.877 l 0,0 c 4.218,4.684 10.089,7.029 17.605,7.029 l 0,0 c 8.255,0 14.541,-2.228 18.855,-6.682 l 0,0 c 4.311,-4.455 6.469,-10.528 6.469,-18.224 l 0,0 c 0,-7.053 -2.299,-12.899 -6.889,-17.535 l 0,0 c -4.593,-4.639 -10.738,-6.957 -18.435,-6.957 l 0,0 c -7.702,0 -13.688,2.363 -17.954,7.096"
         id="path3335" /></clipPath><linearGradient
       x1="0"
       y1="0"
       x2="1"
       y2="0"
       gradientUnits="userSpaceOnUse"
       gradientTransform="matrix(0,-46.38739,-46.38739,0,683.20312,216.42969)"
       spreadMethod="pad"
       id="linearGradient3341"><stop
         style="stop-opacity:1;stop-color:#e8a222"
         offset="0"
         id="stop3343" /><stop
         style="stop-opacity:1;stop-color:#ee7722"
         offset="0.612366"
         id="stop3345" /><stop
         style="stop-opacity:1;stop-color:#ee7722"
         offset="1"
         id="stop3347" /></linearGradient><clipPath
       clipPathUnits="userSpaceOnUse"
       id="clipPath3355"><path
         d="M 744.074,238.432 C 736.932,231.796 733.36,223.24 733.36,212.76 l 0,0 c 0,-10.487 3.527,-19.022 10.577,-25.609 l 0,0 c 7.051,-6.587 16.561,-9.879 28.528,-9.879 l 0,0 c 11.965,0 21.519,3.292 28.665,9.879 l 0,0 c 7.141,6.587 10.718,15.122 10.718,25.609 l 0,0 c 0,10.48 -3.527,19.036 -10.579,25.672 l 0,0 c -7.05,6.634 -16.56,9.952 -28.524,9.952 l 0,0 c -11.971,0 -21.53,-3.318 -28.671,-9.952 m 9.602,-42.792 c -4.545,4.361 -6.816,10.068 -6.816,17.12 l 0,0 c 0,7.142 2.25,12.892 6.75,17.255 l 0,0 c 4.498,4.359 10.829,6.542 18.993,6.542 l 0,0 c 8.257,0 14.635,-2.159 19.135,-6.474 l 0,0 c 4.5,-4.314 6.75,-10.09 6.75,-17.323 l 0,0 c 0,-7.052 -2.298,-12.759 -6.89,-17.12 l 0,0 c -4.594,-4.359 -10.925,-6.537 -18.995,-6.537 l 0,0 c -8.07,0 -14.383,2.178 -18.927,6.537"
         id="path3357" /></clipPath><linearGradient
       x1="0"
       y1="0"
       x2="1"
       y2="0"
       gradientUnits="userSpaceOnUse"
       gradientTransform="matrix(0,-46.38623,-46.38623,0,772.60352,216.43311)"
       spreadMethod="pad"
       id="linearGradient3363"><stop
         style="stop-opacity:1;stop-color:#e8a222"
         offset="0"
         id="stop3365" /><stop
         style="stop-opacity:1;stop-color:#ee7722"
         offset="0.612366"
         id="stop3367" /><stop
         style="stop-opacity:1;stop-color:#ee7722"
         offset="1"
         id="stop3369" /></linearGradient><clipPath
       clipPathUnits="userSpaceOnUse"
       id="clipPath3377"><path
         d="M 0,400 1024,400 1024,0 0,0 0,400 z"
         id="path3379" /></clipPath><clipPath
       clipPathUnits="userSpaceOnUse"
       id="clipPath3389"><path
         d="m 764.164,224.235 0.033,-22.514 c -0.24,-5.775 4.557,-3.618 4.557,-3.618 l 0,0 16.135,11.328 c 3.603,2.562 0.033,4.779 0.033,4.779 l 0,0 -14.563,12.769 c -1.139,0.687 -2.075,0.957 -2.841,0.957 l 0,0 c -2.835,0 -3.354,-3.701 -3.354,-3.701"
         id="path3391" /></clipPath><linearGradient
       x1="0"
       y1="0"
       x2="1"
       y2="0"
       gradientUnits="userSpaceOnUse"
       gradientTransform="matrix(22.451111,0,0,-22.451096,766.04004,212.82275)"
       spreadMethod="pad"
       id="linearGradient3397"><stop
         style="stop-opacity:1;stop-color:#79368f"
         offset="0"
         id="stop3399" /><stop
         style="stop-opacity:1;stop-color:#482654"
         offset="1"
         id="stop3401" /></linearGradient><filter
       inkscape:collect="always"
       id="filter4380"><feGaussianBlur
         inkscape:collect="always"
         stdDeviation="1.87"
         id="feGaussianBlur4382" /></filter><filter
       inkscape:collect="always"
       id="filter4408"><feGaussianBlur
         inkscape:collect="always"
         stdDeviation="1.1841551"
         id="feGaussianBlur4410" /></filter><linearGradient
       inkscape:collect="always"
       xlink:href="#linearGradient3363"
       id="linearGradient4492"
       gradientUnits="userSpaceOnUse"
       gradientTransform="matrix(0,-46.38623,-46.38623,0,772.60352,216.43311)"
       spreadMethod="pad"
       x1="0"
       y1="0"
       x2="1"
       y2="0" /><linearGradient
       inkscape:collect="always"
       xlink:href="#linearGradient3397"
       id="linearGradient4494"
       gradientUnits="userSpaceOnUse"
       gradientTransform="matrix(22.451111,0,0,-22.451096,766.04004,212.82275)"
       spreadMethod="pad"
       x1="0"
       y1="0"
       x2="1"
       y2="0" /></defs><sodipodi:namedview
     pagecolor="#ffffff"
     bordercolor="#666666"
     borderopacity="1"
     objecttolerance="10"
     gridtolerance="10"
     guidetolerance="10"
     inkscape:pageopacity="0"
     inkscape:pageshadow="2"
     inkscape:window-width="1440"
     inkscape:window-height="875"
     id="namedview3155"
     showgrid="false"
     inkscape:zoom="4.8953447"
     inkscape:cx="993.59699"
     inkscape:cy="255.67358"
     inkscape:window-x="0"
     inkscape:window-y="124"
     inkscape:window-maximized="1"
     inkscape:current-layer="g3161" /><g
     id="g3161"
     inkscape:groupmode="layer"
     inkscape:label="logo_jamendo"
     transform="matrix(1.25,0,0,-1.25,0,500)"
     style="display:inline"><g
       id="g4496"><rect
         transform="scale(1,-1)"
         y="-253.16319"
         x="727.87836"
         height="89.391052"
         width="89.391052"
         id="rect4488"
         style="opacity:1;fill:none;stroke:none" /><g
         transform="translate(0,-2.8049538)"
         inkscape:export-ydpi="455.73535"
         inkscape:export-xdpi="455.73535"
         inkscape:export-filename="/home/plinmagi/Projects/jamendo-android/icon.png"
         id="g4472"><g
           id="g4459"
           style="fill:#ffffff"><g
             id="g4461"
             style="fill:#ffffff"><path
               id="path4463"
               style="fill:#ffffff;stroke:none"
               d="m 745.09394,237.51667 c -6.88668,-6.39877 -10.33098,-14.6489 -10.33098,-24.75424 l 0,0 c 0,-10.11209 3.40091,-18.34197 10.19887,-24.69349 l 0,0 c 6.79893,-6.35151 15.96895,-9.52583 27.50814,-9.52583 l 0,0 c 11.53725,0 20.7497,3.17432 27.64024,9.52583 l 0,0 c 6.88571,6.35152 10.33483,14.5814 10.33483,24.69349 l 0,0 c 0,10.10534 -3.40091,18.35547 -10.2008,24.75424 l 0,0 c -6.79797,6.39683 -15.96799,9.59622 -27.50428,9.59622 l 0,0 c -11.54304,0 -20.76031,-3.19939 -27.64602,-9.59622"
               inkscape:connector-curvature="0"
               sodipodi:nodetypes="cccccccccccccccc" /></g></g><path
           style="opacity:0.75;fill:#1a1a1a;stroke:none;filter:url(#filter4408)"
           d="m 770.1875,173.71875 c -17.52978,-0.30063 -35.35772,11.677 -38.125,29.59375 -3.4907,16.1243 4.23628,34.02047 19.34375,41 17.8399,7.99643 42.45489,6.01888 55.0625,-10.21875 13.15748,-16.87571 8.50358,-45.19959 -11,-55.0625 -7.59806,-4.26834 -16.58594,-5.65019 -25.28125,-5.3125 z M 772.59375,189.5 c 11.35012,-0.94202 23.48207,7.26095 23.78125,19.28125 1.72124,10.85743 -5.8118,22.23478 -17,23.5625 -11.0644,2.40065 -25.21998,-1.02138 -29.1875,-12.78125 -4.27718,-11.2554 1.0708,-25.90529 13.34375,-28.875 2.98855,-0.82318 5.96253,-1.2226 9.0625,-1.1875 z"
           id="path4378"
           inkscape:connector-curvature="0" /><g
           id="g3351"><g
             id="g3353"
             clip-path="url(#clipPath3355)"><g
               id="g3359"><g
                 id="g3361"><path
                   inkscape:connector-curvature="0"
                   d="M 744.074,238.432 C 736.932,231.796 733.36,223.24 733.36,212.76 l 0,0 c 0,-10.487 3.527,-19.022 10.577,-25.609 l 0,0 c 7.051,-6.587 16.561,-9.879 28.528,-9.879 l 0,0 c 11.965,0 21.519,3.292 28.665,9.879 l 0,0 c 7.141,6.587 10.718,15.122 10.718,25.609 l 0,0 c 0,10.48 -3.527,19.036 -10.579,25.672 l 0,0 c -7.05,6.634 -16.56,9.952 -28.524,9.952 l 0,0 c -11.971,0 -21.53,-3.318 -28.671,-9.952 m 9.602,-42.792 c -4.545,4.361 -6.816,10.068 -6.816,17.12 l 0,0 c 0,7.142 2.25,12.892 6.75,17.255 l 0,0 c 4.498,4.359 10.829,6.542 18.993,6.542 l 0,0 c 8.257,0 14.635,-2.159 19.135,-6.474 l 0,0 c 4.5,-4.314 6.75,-10.09 6.75,-17.323 l 0,0 c 0,-7.052 -2.298,-12.759 -6.89,-17.12 l 0,0 c -4.594,-4.359 -10.925,-6.537 -18.995,-6.537 l 0,0 c -8.07,0 -14.383,2.178 -18.927,6.537"
                   style="fill:url(#linearGradient4492);stroke:none"
                   id="path3371" /></g></g></g></g><g
           id="g3385"><g
             id="g3387"
             clip-path="url(#clipPath3389)"><g
               id="g3393"><g
                 id="g3395"><path
                   inkscape:connector-curvature="0"
                   d="m 764.164,224.235 0.033,-22.514 c -0.24,-5.775 4.557,-3.618 4.557,-3.618 l 0,0 16.135,11.328 c 3.603,2.562 0.033,4.779 0.033,4.779 l 0,0 -14.563,12.769 c -1.139,0.687 -2.075,0.957 -2.841,0.957 l 0,0 c -2.835,0 -3.354,-3.701 -3.354,-3.701"
                   style="fill:url(#linearGradient4494);stroke:none"
                   id="path3403" /></g></g></g></g></g></g></g></svg>